<?xml version="1.0" encoding="utf-8"?>
<!-- Generator: Adobe Illustrator 16.0.0, SVG Export Plug-In . SVG Version: 6.00 Build 0)  -->
<!DOCTYPE svg PUBLIC "-//W3C//DTD SVG 1.1//EN" "http://www.w3.org/Graphics/SVG/1.1/DTD/svg11.dtd">
<svg version="1.1" id="Layer_1" xmlns="http://www.w3.org/2000/svg" xmlns:xlink="http://www.w3.org/1999/xlink" x="0px" y="0px"
     width="512px" height="496.972px" viewBox="0 0 512 496.972" enable-background="new 0 0 512 496.972" xml:space="preserve">
<path fill="#932B8D" d="M165.677,0C20.053,17.14-6.116,175.755,1.176,293.994C10.7,448.865,209.428,504.972,338.87,497.3
    c51.084-3.02,110.287-14.125,133.71-64.145c24.536-52.393,38.859-100.848,38.568-158.302c-0.298-55.825-5.041-93.927-41.277-136.17
    c-29.578-34.505-60.408-84.606-101.153-107.529C316.365,1.669,231.17,0.533,172.542,0"/>
<path fill="#FFFFFF" d="M105.169,349.732l121.599-2.647c0,0,0,9.818,0,15.876c0,6.063-6.872,10.589-11.216,10.589
    c-3.486,0-72.376,2.236-99.525,2.236c-6.7,0-10.857-7.505-10.857-11.938C105.169,359.411,105.169,349.732,105.169,349.732z
     M261.514,357.759c0,1.954,0.361,6.694,5.971,6.694c5.613,0,102.694,4.007,106.128,4.007c3.44,0,9.499-4.345,9.499-7.419
    c0-3.078,0-18.64,0-18.64l-121.598-1.289C261.514,341.113,261.514,355.81,261.514,357.759z M261.514,329.709l3.261-30.332
    l-41.313,3.257l3.306,32.913l-121.599,5.495c0-60.07,34.744-160.142,39.086-163.809c4.342-3.663,17.372-8.277,17.372-8.277
    s-3.983-52.837-3.983-55.009s4.796-6.063,8.326-6.063c3.529,0,32.571-1.359,37.272-1.359c4.707,0,8.598,2.262,8.598,6.066
    c0,3.796,0.338,62.032,4.071,79.347c3.257-0.724,48.494-3.983,60.491-7.238c2.844-20.63,1.938-75.101,1.938-78.535
    c0-3.44,2.986-8.326,8.777-8.326s29.315,0,35.192,0c5.884,0,8.69,3.711,8.69,7.331s0,53.473,0,53.473s12.529,1.623,17.233,4.881
    c4.707,3.26,34.875,119.52,34.875,170.187L261.514,329.709z M261.514,216.728c-4.613-1.088-30.942,1.082-34.746,2.71
    c-3.796,1.629-3.527,16.287,0,17.375c3.531,1.083,29.857-1.362,34.746-2.716C266.402,232.743,266.128,217.812,261.514,216.728z"/>
</svg>
