<?xml version="1.0" encoding="utf-8"?>
<!-- Generator: Adobe Illustrator 16.0.0, SVG Export Plug-In . SVG Version: 6.00 Build 0)  -->
<!DOCTYPE svg PUBLIC "-//W3C//DTD SVG 1.1//EN" "http://www.w3.org/Graphics/SVG/1.1/DTD/svg11.dtd">
<svg version="1.1" id="Layer_1" xmlns="http://www.w3.org/2000/svg" xmlns:xlink="http://www.w3.org/1999/xlink" x="0px" y="0px"
     width="484.766px" height="176.524px" viewBox="0 0 484.766 176.524" enable-background="new 0 0 484.766 176.524"
     xml:space="preserve">
<g>
    <g>
        <path fill="#E7B923" d="M465.775,20.109C455.238,4.065,425.108-7.506,412.043,5.834c-1.479,1.511-2.8,3.078-3.956,4.695
            c3.843,0.821,7.232,2.77,9.067,6.625c2.122,4.229,2.476,15.755-1.352,22.019c1.233,1.317,2.223,2.864,2.97,4.522
            c1.299,2.882,2.876,6.856,3.048,10.758c2.951,1.568,6.08,2.864,8.041,3.341c5.033,1.215,10.334,1.106,15.205,0.534
            c6.219-0.727,11.833-3.293,16.179-7.303C469.214,43.68,472.997,31.117,465.775,20.109z"/>
        <path fill="#5FB8DE" d="M396.261,39.466c2.506-1.797,5.6-3.204,8.765-3.7c-3.897-9.17-2.273-17.754,3.062-25.237
            c-4.372-0.932-9.34-0.395-13.31,0.551c-8.642,1.971-10.992,6.094-10.794,14.731c0.133,6.696,3.487,13.369,8.817,16.905
            C393.85,41.501,394.987,40.378,396.261,39.466z"/>
        <path fill="#DEBA29" d="M405.026,35.767c2.707-0.424,5.461-0.189,7.942,1.143c1.092,0.586,2.009,1.381,2.835,2.263
            c3.827-6.264,3.474-17.789,1.352-22.019c-1.835-3.855-5.225-5.804-9.067-6.625C402.752,18.013,401.128,26.596,405.026,35.767z"/>
        <path fill="#638339" d="M405.026,35.767c2.707-0.424,5.461-0.189,7.942,1.143c1.092,0.586,2.009,1.381,2.835,2.263
            c3.827-6.264,3.474-17.789,1.352-22.019c-1.835-3.855-5.225-5.804-9.067-6.625C402.752,18.013,401.128,26.596,405.026,35.767z"/>
        <path fill="#E90C8B" d="M409.787,43.82c-2.813,1.172-4.456,1.118-7.141,1.415c-3.714,0.341-7.048-0.666-9.845-2.518
            c-4.147,4.821-6.329,11.613-4.928,17.524v0.001c0,0.003,0.003,0.007,0.003,0.012c2.747-0.163,5.646,0.451,6.897,3.081
            c0.626,1.245,0.978,3.928,0.585,6.395c7.99,4.446,15.721,2.518,23.888-7.311c2.101-2.315,2.701-5.121,2.574-7.965
            c-2.8-1.486-5.444-3.217-6.786-4.745C413.01,47.729,411.278,45.765,409.787,43.82z"/>
        <path fill="#DEBA29" d="M415.803,39.173c-0.791,1.293-1.748,2.38-2.921,3.113c-1.201,0.673-2.205,1.162-3.096,1.534
            c1.491,1.945,3.224,3.909,5.248,5.889c1.342,1.528,3.986,3.259,6.786,4.745c-0.172-3.902-1.749-7.876-3.048-10.758
            C418.026,42.037,417.037,40.49,415.803,39.173z"/>
        <path fill="#C02328" d="M415.803,39.173c-0.791,1.293-1.748,2.38-2.921,3.113c-1.201,0.673-2.205,1.162-3.096,1.534
            c1.491,1.945,3.224,3.909,5.248,5.889c1.342,1.528,3.986,3.259,6.786,4.745c-0.172-3.902-1.749-7.876-3.048-10.758
            C418.026,42.037,417.037,40.49,415.803,39.173z"/>
        <path fill="#60B7DE" d="M402.646,45.234c2.685-0.296,4.327-0.242,7.141-1.415c-2.087-2.727-3.642-5.412-4.761-8.053
            c-3.165,0.496-6.259,1.903-8.765,3.7c-1.274,0.912-2.411,2.035-3.46,3.25C395.598,44.568,398.932,45.576,402.646,45.234z"/>
        <path fill="#6D2977" d="M402.646,45.234c2.685-0.296,4.327-0.242,7.141-1.415c-2.087-2.727-3.642-5.412-4.761-8.053
            c-3.165,0.496-6.259,1.903-8.765,3.7c-1.274,0.912-2.411,2.035-3.46,3.25C395.598,44.568,398.932,45.576,402.646,45.234z"/>
        <path fill="#DEBA29" d="M412.968,36.91c-2.481-1.332-5.235-1.567-7.942-1.143c1.119,2.641,2.674,5.326,4.761,8.053
            c0.891-0.373,1.895-0.861,3.096-1.534c1.173-0.732,2.13-1.819,2.921-3.113C414.977,38.291,414.06,37.496,412.968,36.91z"/>
        <path fill="#60B7DE" d="M412.968,36.91c-2.481-1.332-5.235-1.567-7.942-1.143c1.119,2.641,2.674,5.326,4.761,8.053
            c0.891-0.373,1.895-0.861,3.096-1.534c1.173-0.732,2.13-1.819,2.921-3.113C414.977,38.291,414.06,37.496,412.968,36.91z"/>
        <path fill="#69252D" d="M412.968,36.91c-2.481-1.332-5.235-1.567-7.942-1.143c1.119,2.641,2.674,5.326,4.761,8.053
            c0.891-0.373,1.895-0.861,3.096-1.534c1.173-0.732,2.13-1.819,2.921-3.113C414.977,38.291,414.06,37.496,412.968,36.91z"/>
        <path fill="#EF8128" d="M387.876,60.253c-0.027,0.002-0.056,0-0.084,0.002c-0.983,0.062-1.947,0.221-2.803,0.426
            c-3.777,0.858-4.805,2.665-4.719,6.441c0.086,4.461,3.439,8.921,8.158,8.491c1.543-0.172,3.397-0.41,4.474-1.292
            c1.682-1.368,2.272-2.372,2.456-4.592c0,0-0.628-0.354-0.943-0.551C390.776,66.929,388.708,63.751,387.876,60.253z"/>
        <path fill="#E9128B" d="M394.774,63.334c-1.251-2.63-4.15-3.244-6.897-3.081c0.832,3.498,2.899,6.676,6.539,8.925
            c0.315,0.196,0.943,0.551,0.943,0.551C395.751,67.263,395.4,64.579,394.774,63.334z"/>
        <path fill="#EF802A" d="M394.774,63.334c-1.251-2.63-4.15-3.244-6.897-3.081c0.832,3.498,2.899,6.676,6.539,8.925
            c0.315,0.196,0.943,0.551,0.943,0.551C395.751,67.263,395.4,64.579,394.774,63.334z"/>
        <path fill="#CF1F41" d="M394.85,63.32c-1.264-2.656-4.208-3.258-6.977-3.079c0.827,3.502,2.898,6.687,6.542,8.937
            c0.315,0.196,0.632,0.379,0.943,0.551C395.751,67.263,395.48,64.565,394.85,63.32"/>
    </g>
    <path fill="#FFFFFF" d="M441.694,90.213c-4.841-1.329-10.728-2.089-13.575-2.089c-18.325,0-27.629,11.77-27.629,31.238
        c0,15.947,6.453,26.49,19.939,26.49c9.115,0,14.049-4.846,17.091-10.258v5.223c0,2.564,1.8,4.648,4.367,4.648
        c2.655,0,4.367-2.084,4.367-4.648V97.429C446.254,93.438,445.78,91.351,441.694,90.213z M437.138,119.739
        c0,7.408-5.126,19.082-16.331,19.082c-8.541,0-11.202-9.871-11.202-19.176c0-13.676,4.367-24.116,17.086-24.116
        c4.181,0,8.356,0.852,10.447,1.706V119.739z M380.172,93.25c0-2.659,1.995-4.747,4.557-4.747c2.661,0,4.651,2.088,4.651,4.747
        v47.567c0,2.564-1.99,4.648-4.651,4.648c-2.562,0-4.557-2.084-4.557-4.648V93.25z M364.79,135.405
        c1.329-0.758,2.945-1.613,4.464-1.613c1.8,0,3.418,1.141,3.418,3.604c0,1.426-0.671,2.566-2.088,3.516
        c-3.8,2.562-9.973,4.941-16.902,4.941c-15.667,0-24.116-10.068-24.116-28.867c0-22.406,13.671-28.861,24.021-28.861
        c5.792,0,11.585,1.326,17.091,5.885c0.947,0.762,1.517,1.994,1.517,3.227c0,2.188-1.517,4.086-3.796,4.086
        c-1.233,0-2.659-0.758-3.608-1.521c-3.608-3.037-6.743-3.988-11.108-3.988c-8.544,0-14.904,6.457-14.904,20.793
        c0,12.631,4.459,21.555,15.757,21.555C357.861,138.159,361.181,137.495,364.79,135.405 M298.613,88.124
        c-10.921,0-25.065,5.693-25.065,28.48c0,19.846,9.208,29.248,23.263,29.248c13.764,0,25.063-8.926,25.063-30.387
        C321.874,90.497,306.207,88.124,298.613,88.124z M297.567,138.638c-12.151,0-14.812-12.535-14.812-23.074
        c0-11.586,5.226-20.034,15.19-20.034c10.257,0,14.53,8.923,14.53,21.747C312.476,128.95,307.539,138.638,297.567,138.638z
         M231.675,134.267c1.14,0,1.993,0.473,2.754,0.854c3.323,1.807,7.214,3.518,12.529,3.518c5.89,0,10.352-2.758,10.352-8.83
        c0-6.08-5.695-8.072-11.869-10.068c-7.498-2.463-15.663-5.221-15.663-15.572c0-11.105,8.83-16.043,18.515-16.043
        c6.074,0,10.919,1.611,14.523,3.89c1.048,0.57,2.379,1.804,2.379,3.61c0,2.09-1.426,3.799-3.52,3.799
        c-1.04,0-2.178-0.568-3.131-1.143c-3.129-1.899-6.742-2.751-10.633-2.751c-4.461,0-9.496,1.706-9.496,7.784
        c0,5.602,5.792,7.693,11.681,9.588c7.312,2.473,15.946,6.076,15.946,16.428c0,10.918-7.687,16.523-18.983,16.523
        c-7.979,0-12.818-2.283-16.331-4.182c-1.427-0.76-2.562-1.898-2.562-3.605C228.166,135.978,229.587,134.267,231.675,134.267
         M154.198,109.485c0-7.598-2.562-13.861-11.295-13.861c-7.975,0-14.337,8.164-14.337,17.852v27.342c0,2.564-1.994,4.648-4.65,4.648
        c-2.564,0-4.56-2.084-4.56-4.648V93.25c0-2.659,1.804-4.747,4.366-4.747c2.657,0,4.464,2.088,4.464,4.747v3.701
        c3.893-6.454,9.874-8.827,16.33-8.827c11.868,0,18.895,6.359,18.895,19.084v33.609c0,2.564-1.994,4.648-4.65,4.648
        c-2.566,0-4.562-2.084-4.562-4.648V109.485z M77.2,91.446c0.663-1.711,2.182-2.848,4.084-2.848c3.227,0,5.505,2.562,4.176,6.172
        l-17.375,46.809c-0.759,2.088-1.803,3.797-4.082,3.797c-2.279,0-3.134-1.613-3.988-3.797l-17.187-46.43
        c-1.327-3.514,0.381-6.551,3.989-6.551c1.992,0,3.514,1.236,4.176,2.941l13.198,35.795L77.2,91.446z M0,70.744
        c0-2.659,1.994-4.747,4.558-4.747c2.659,0,4.654,2.088,4.654,4.747v70.701c0,2.564-1.995,4.652-4.654,4.652
        c-2.563,0-4.558-2.088-4.558-4.652V70.744z M460.405,70.744c0-2.659,1.993-4.747,4.557-4.747c2.659,0,4.656,2.088,4.656,4.747
        v70.701c0,2.564-1.997,4.652-4.656,4.652c-2.563,0-4.557-2.088-4.557-4.652V70.744z M213.709,89.837
        c-4.271-1.043-8.543-1.805-12.532-1.805c-13.767,0-26.298,9.494-26.298,27.633c0,19.457,8.449,26.486,18.322,27.434l-1.991,1.332
        c-5.791,3.893-12.059,8.357-12.059,16.902c0,8.922,5.98,15.191,17.467,15.191c21.838,0,22.695-20.418,22.695-32.475V97.622
        C219.313,91.544,217.699,90.789,213.709,89.837z M210.769,148.228c0,12.248-2.946,21.555-13.388,21.555
        c-5.697,0-9.684-2.568-9.684-8.449c0-5.031,5.127-9.404,10.73-14.148l12.342-10.539V148.228z M210.862,119.841
        c0,8.355-5.316,16.9-13.007,16.9c-13.388,0-13.862-13.389-13.862-20.225c0-13.768,6.551-21.076,16.047-21.076
        c5.03,0,7.782,0.664,10.821,1.611V119.841z M96.153,93.16c0-2.66,1.992-4.75,4.558-4.75c2.658,0,4.65,2.09,4.65,4.75v47.571
        c0,2.562-1.992,4.652-4.65,4.652c-2.566,0-4.558-2.09-4.558-4.652V93.16z M24.561,93.16c0-2.66,1.994-4.75,4.56-4.75
        c2.659,0,4.65,2.09,4.65,4.75v47.571c0,2.562-1.992,4.652-4.65,4.652c-2.565,0-4.56-2.09-4.56-4.652V93.16z"/>
    <g>
        <g>
            <g>
                <g>
                    <path fill="#FFFFFF" d="M479.819,146.054c-2.935,0-4.617-2.078-4.617-5.701c0-5.16,3.786-5.561,4.947-5.561
                        c1.725,0,4.617,0.695,4.617,5.355C484.766,143.846,482.917,146.054,479.819,146.054z M480.149,135.614
                        c-1.241,0-4.129,0.462-4.129,4.738c0,3.147,1.35,4.881,3.799,4.881c2.621,0,4.124-1.854,4.124-5.086
                        C483.943,137.14,482.667,135.614,480.149,135.614z"/>
                </g>
            </g>
        </g>
    </g>
    <g>
        <path fill="#FFFFFF" d="M477.861,138.03c0-0.223,0.179-0.402,0.402-0.402h2.065c0.697,0,1.276,0.225,1.635,0.58
            c0.268,0.252,0.445,0.623,0.445,1.072v0.027c0,0.863-0.58,1.412-1.411,1.605l1.307,1.619c0.057,0.09,0.104,0.18,0.104,0.297
            c0,0.223-0.194,0.389-0.4,0.389c-0.165,0-0.254-0.061-0.344-0.18l-1.557-1.975h-1.431v1.752c0,0.223-0.191,0.402-0.414,0.402
            c-0.224,0-0.402-0.18-0.402-0.402V138.03z M480.254,140.335c0.771,0,1.31-0.357,1.31-0.982v-0.029
            c0-0.578-0.477-0.951-1.266-0.951h-1.621v1.963H480.254z"/>
    </g>
</g>
</svg>
